<svg xmlns="http://www.w3.org/2000/svg" width="519" height="76" viewBox="0 0 519 76">
    <path fill="#061706ff"
          d="M51.12 52.44L60.55 52.44Q59.23 63.72 52.22 69.85Q45.21 75.98 33.59 75.98L33.59 75.98Q21.00 75.98 13.40 66.94Q5.81 57.91 5.81 42.77L5.81 42.77L5.81 35.94Q5.81 26.03 9.35 18.51Q12.89 10.99 19.38 6.96Q25.88 2.93 34.42 2.93L34.42 2.93Q45.75 2.93 52.59 9.25Q59.42 15.58 60.55 26.76L60.55 26.76L51.12 26.76Q49.90 18.26 45.83 14.45Q41.75 10.64 34.42 10.64L34.42 10.64Q25.44 10.64 20.34 17.29Q15.23 23.93 15.23 36.18L15.23 36.18L15.23 43.07Q15.23 54.64 20.07 61.47Q24.90 68.31 33.59 68.31L33.59 68.31Q41.41 68.31 45.58 64.77Q49.76 61.23 51.12 52.44L51.12 52.44ZM114.01 75L104.54 75Q103.76 73.44 103.27 69.43L103.27 69.43Q96.97 75.98 88.23 75.98L88.23 75.98Q80.42 75.98 75.42 71.56Q70.41 67.14 70.41 60.35L70.41 60.35Q70.41 52.10 76.68 47.53Q82.96 42.97 94.34 42.97L94.34 42.97L103.13 42.97L103.13 38.82Q103.13 34.08 100.29 31.27Q97.46 28.47 91.94 28.47L91.94 28.47Q87.11 28.47 83.84 30.91Q80.57 33.35 80.57 36.82L80.57 36.82L71.48 36.82Q71.48 32.86 74.29 29.17Q77.10 25.49 81.91 23.34Q86.72 21.19 92.48 21.19L92.48 21.19Q101.61 21.19 106.79 25.76Q111.96 30.32 112.16 38.33L112.16 38.33L112.16 62.65Q112.16 69.92 114.01 74.22L114.01 74.22L114.01 75ZM89.55 68.12L89.55 68.12Q93.80 68.12 97.61 65.92Q101.42 63.72 103.13 60.21L103.13 60.21L103.13 49.37L96.04 49.37Q79.44 49.37 79.44 59.08L79.44 59.08Q79.44 63.33 82.28 65.72Q85.11 68.12 89.55 68.12ZM151.86 21.88L151.86 30.27Q149.80 29.93 147.41 29.93L147.41 29.93Q138.53 29.93 135.35 37.50L135.35 37.50L135.35 75L126.32 75L126.32 22.17L135.11 22.17L135.25 28.27Q139.70 21.19 147.85 21.19L147.85 21.19Q150.49 21.19 151.86 21.88L151.86 21.88ZM157.03 48.83L157.03 48.14Q157.03 35.99 162.79 28.59Q168.55 21.19 177.88 21.19L177.88 21.19Q187.16 21.19 192.58 27.54L192.58 27.54L192.58 0L201.61 0L201.61 75L193.31 75L192.87 69.34Q187.45 75.98 177.78 75.98L177.78 75.98Q168.60 75.98 162.82 68.46Q157.03 60.94 157.03 48.83L157.03 48.83ZM166.06 49.17L166.06 49.17Q166.06 58.15 169.78 63.23Q173.49 68.31 180.03 68.31L180.03 68.31Q188.62 68.31 192.58 60.60L192.58 60.60L192.58 36.33Q188.53 28.86 180.13 28.86L180.13 28.86Q173.49 28.86 169.78 33.98Q166.06 39.11 166.06 49.17ZM269.53 39.60L269.53 65.67Q265.92 70.85 259.45 73.41Q252.98 75.98 244.38 75.98L244.38 75.98Q235.69 75.98 228.96 71.90Q222.22 67.82 218.53 60.30Q214.84 52.78 214.75 42.87L214.75 42.87L214.75 36.67Q214.75 20.61 222.24 11.77Q229.74 2.93 243.31 2.93L243.31 2.93Q254.44 2.93 261.23 8.62Q268.02 14.31 269.53 24.76L269.53 24.76L260.16 24.76Q257.52 10.64 243.36 10.64L243.36 10.64Q233.94 10.64 229.08 17.26Q224.22 23.88 224.17 36.43L224.17 36.43L224.17 42.24Q224.17 54.20 229.64 61.25Q235.11 68.31 244.43 68.31L244.43 68.31Q249.71 68.31 253.66 67.14Q257.62 65.97 260.21 63.18L260.21 63.18L260.21 47.22L243.75 47.22L243.75 39.60L269.53 39.60ZM325.83 75L316.36 75Q315.58 73.44 315.09 69.43L315.09 69.43Q308.79 75.98 300.05 75.98L300.05 75.98Q292.24 75.98 287.23 71.56Q282.23 67.14 282.23 60.35L282.23 60.35Q282.23 52.10 288.50 47.53Q294.78 42.97 306.15 42.97L306.15 42.97L314.94 42.97L314.94 38.82Q314.94 34.08 312.11 31.27Q309.28 28.47 303.76 28.47L303.76 28.47Q298.93 28.47 295.65 30.91Q292.38 33.35 292.38 36.82L292.38 36.82L283.30 36.82Q283.30 32.86 286.11 29.17Q288.92 25.49 293.73 23.34Q298.54 21.19 304.30 21.19L304.30 21.19Q313.43 21.19 318.60 25.76Q323.78 30.32 323.97 38.33L323.97 38.33L323.97 62.65Q323.97 69.92 325.83 74.22L325.83 74.22L325.83 75ZM301.37 68.12L301.37 68.12Q305.62 68.12 309.42 65.92Q313.23 63.72 314.94 60.21L314.94 60.21L314.94 49.37L307.86 49.37Q291.26 49.37 291.26 59.08L291.26 59.08Q291.26 63.33 294.09 65.72Q296.92 68.12 301.37 68.12ZM338.09 22.17L346.63 22.17L346.88 28.03Q352.69 21.19 362.55 21.19L362.55 21.19Q373.63 21.19 377.64 29.69L377.64 29.69Q380.27 25.88 384.50 23.54Q388.72 21.19 394.48 21.19L394.48 21.19Q411.87 21.19 412.16 39.60L412.16 39.60L412.16 75L403.13 75L403.13 40.14Q403.13 34.47 400.54 31.67Q397.95 28.86 391.85 28.86L391.85 28.86Q386.82 28.86 383.50 31.86Q380.18 34.86 379.64 39.94L379.64 39.94L379.64 75L370.56 75L370.56 40.38Q370.56 28.86 359.28 28.86L359.28 28.86Q350.39 28.86 347.12 36.43L347.12 36.43L347.12 75L338.09 75L338.09 22.17ZM447.71 75.98L447.71 75.98Q436.96 75.98 430.22 68.92Q423.49 61.87 423.49 50.05L423.49 50.05L423.49 48.39Q423.49 40.53 426.49 34.35Q429.49 28.17 434.89 24.68Q440.28 21.19 446.58 21.19L446.58 21.19Q456.88 21.19 462.60 27.98Q468.31 34.77 468.31 47.41L468.31 47.41L468.31 51.17L432.52 51.17Q432.71 58.98 437.08 63.79Q441.46 68.60 448.19 68.60L448.19 68.60Q452.98 68.60 456.30 66.65Q459.62 64.70 462.11 61.47L462.11 61.47L467.63 65.77Q460.99 75.98 447.71 75.98ZM446.58 28.61L446.58 28.61Q441.11 28.61 437.40 32.59Q433.69 36.57 432.81 43.75L432.81 43.75L459.28 43.75L459.28 43.07Q458.89 36.18 455.57 32.40Q452.25 28.61 446.58 28.61ZM509.52 60.99L509.52 60.99Q509.52 57.32 506.76 55.30Q504.00 53.27 497.14 51.81Q490.28 50.34 486.25 48.29Q482.23 46.24 480.30 43.41Q478.37 40.58 478.37 36.67L478.37 36.67Q478.37 30.18 483.86 25.68Q489.36 21.19 497.90 21.19L497.90 21.19Q506.88 21.19 512.48 25.83Q518.07 30.47 518.07 37.70L518.07 37.70L508.98 37.70Q508.98 33.98 505.83 31.30Q502.69 28.61 497.90 28.61L497.90 28.61Q492.97 28.61 490.19 30.76Q487.40 32.91 487.40 36.38L487.40 36.38Q487.40 39.65 489.99 41.31Q492.58 42.97 499.34 44.48Q506.10 46.00 510.30 48.10Q514.50 50.20 516.53 53.15Q518.55 56.10 518.55 60.35L518.55 60.35Q518.55 67.43 512.89 71.70Q507.23 75.98 498.19 75.98L498.19 75.98Q491.85 75.98 486.96 73.73Q482.08 71.48 479.32 67.46Q476.56 63.43 476.56 58.74L476.56 58.74L485.60 58.74Q485.84 63.28 489.23 65.94Q492.63 68.60 498.19 68.60L498.19 68.60Q503.32 68.60 506.42 66.53Q509.52 64.45 509.52 60.99Z"></path>
</svg>